<?xml version="1.0" encoding="UTF-8"?>
<!DOCTYPE svg PUBLIC "-//W3C//DTD SVG 1.1//EN" "http://www.w3.org/Graphics/SVG/1.1/DTD/svg11.dtd">
<!-- Creator: CorelDRAW 2017 -->
<svg xmlns="http://www.w3.org/2000/svg" xml:space="preserve" width="8.26772in" height="11.6929in" version="1.1" style="shape-rendering:geometricPrecision; text-rendering:geometricPrecision; image-rendering:optimizeQuality; fill-rule:evenodd; clip-rule:evenodd"
viewBox="0 0 8268 11693"
 xmlns:xlink="http://www.w3.org/1999/xlink">
 <defs>
  <style type="text/css">
   <![CDATA[
    .str0 {stroke:#FF4E00;stroke-width:3}
    .fil2 {fill:#FEFEFE}
    .fil1 {fill:#FF4E00}
    .fil0 {fill:#FF4E00;fill-rule:nonzero}
   ]]>
  </style>
 </defs>
 <g id="Layer_x0020_1">
  <metadata id="CorelCorpID_0Corel-Layer"/>
  <g id="_2246426334160">
   <path class="fil0" d="M1642 6844l153 -362 55 0 55 0 146 362c10,24 19,40 27,48 8,8 21,12 38,14l10 1 0 58 -128 0 -128 0 0 -58 14 -1c24,-1 38,-6 42,-14 4,-8 2,-24 -8,-48l-18 -49 0 0 -159 0 0 0 -19 49c-10,24 -13,40 -8,48 5,8 20,12 45,14l15 1 0 58 -107 0 -107 0 0 -58 11 -1c16,-1 29,-7 41,-17 11,-10 21,-25 30,-45zm181 -256l-56 142 0 0 109 0 0 0 -54 -142 0 0zm958 377l0 -45 7 0c27,0 45,-5 54,-15 9,-10 13,-31 13,-62l0 -14 0 -240 0 -13c0,-28 -4,-47 -13,-59 -9,-11 -24,-17 -45,-17l-8 0 0 -45 274 0 0 45 -12 0c-26,2 -44,8 -55,17 -11,9 -16,24 -16,44l0 20 0 7 0 239c0,29 5,50 15,63 10,13 26,19 50,19l9 0c4,0 14,-1 30,-3 17,-2 33,-10 50,-24 17,-14 28,-32 34,-54l3 -13 47 0 0 160 -21 -4c-12,-2 -25,-3 -40,-4 -15,-1 -33,-1 -54,-1l-322 0zm1031 0l0 -45 9 -1c22,0 37,-5 45,-14 8,-9 13,-25 13,-49l0 -26 0 -8 0 -224 0 -14 0 -25c0,-40 -20,-60 -59,-60l-7 0 0 -45 341 0c6,0 14,0 22,-1 9,0 20,-1 34,-3l28 -2 15 -2 0 153 -48 0 -3 -12c-8,-29 -21,-49 -37,-60 -17,-10 -45,-16 -84,-16l-78 0 0 152 40 0 15 0c23,0 39,-4 48,-13 10,-8 17,-23 20,-44l0 -8 47 0 0 197 -47 0c0,-6 -1,-11 -2,-16 -1,-5 -4,-13 -10,-25 -5,-12 -12,-20 -20,-25 -8,-5 -23,-7 -44,-7l-14 0 -35 0 0 102 0 21 0 10c0,17 6,30 19,39 13,9 33,13 62,13 10,0 25,-1 46,-4 21,-2 39,-10 54,-22 15,-13 27,-32 34,-57l3 -13 47 0 0 158 -25 -4c-7,-1 -15,-2 -24,-2 -9,0 -20,-1 -33,-1l-47 0 -328 0zm1087 -254c0,-85 23,-151 68,-200 45,-49 105,-73 180,-73 74,0 134,24 180,73 45,49 68,115 68,200 0,85 -23,151 -68,200 -45,49 -105,73 -180,73 -75,0 -135,-24 -180,-73 -45,-48 -68,-115 -68,-200zm134 0c0,31 2,57 5,77 3,20 9,41 18,63 9,22 22,39 38,52 17,13 34,19 53,19 20,0 39,-8 56,-23 17,-15 31,-35 41,-59 10,-24 15,-54 15,-90 0,-62 -4,-111 -13,-147 -9,-35 -23,-61 -41,-78 -18,-17 -38,-25 -58,-25 -18,0 -36,6 -53,19 -17,13 -30,30 -38,52 -9,22 -15,43 -18,63 -3,20 -5,45 -5,77zm977 254l0 -45 8 0c17,0 29,-3 37,-10 8,-7 13,-16 16,-27 3,-11 5,-20 5,-26 0,-6 1,-16 1,-32l3 -216 0 -5 0 -34c0,-26 -4,-44 -12,-54 -8,-11 -22,-16 -42,-16l-11 0 0 -45 207 0c3,15 9,29 16,44l34 52 87 133c11,17 22,38 32,65 11,27 18,53 22,78l13 -4c-3,-16 -5,-31 -6,-46 -1,-15 -2,-31 -2,-49l0 -44 0 -90 0 -14 -3 -31c-4,-20 -10,-33 -18,-39 -8,-6 -23,-10 -46,-10l-7 0 0 -45 211 0 0 44 -9 1c-22,3 -38,11 -46,22 -8,11 -12,32 -12,62l0 17 0 250 0 57c0,10 1,20 2,31 1,11 2,20 3,28l-95 16c-9,-23 -17,-41 -25,-56 -8,-14 -24,-40 -47,-76l-131 -200c-9,-13 -16,-27 -23,-42 -7,-15 -13,-34 -18,-55l-5 -18 -9 0 4 19c1,10 3,21 4,33 1,12 2,21 2,25l0 12 0 23 0 178 0 18c0,28 5,48 14,59 10,11 26,17 49,17l8 0 0 45 -210 0z"/>
   <path class="fil0 str0" d="M1311 7560l0 -394 292 0 0 67 -212 0 0 88 197 0 0 67 -197 0 0 107 220 0 0 67 -300 0zm358 0l103 -147 -99 -139 92 0 50 79 54 -79 88 0 -97 135 106 150 -92 0 -59 -89 -59 89 -88 0zm369 -286l70 0 0 42c9,-14 21,-26 37,-35 16,-9 33,-13 52,-13 33,0 61,13 84,39 23,26 35,62 35,109 0,48 -12,85 -35,111 -23,27 -52,40 -85,40 -16,0 -30,-3 -43,-9 -13,-6 -26,-17 -40,-32l0 143 -75 0 0 -394zm74 139c0,32 6,56 19,71 13,15 28,23 46,23 18,0 32,-7 44,-21 12,-14 17,-37 17,-69 0,-30 -6,-52 -18,-67 -12,-15 -27,-22 -45,-22 -18,0 -34,7 -46,21 -12,14 -18,36 -18,64zm364 147l-75 0 0 -286 70 0 0 41c12,-19 23,-32 32,-38 10,-6 21,-9 33,-9 17,0 34,5 50,14l-23 66c-13,-8 -25,-12 -36,-12 -11,0 -20,3 -27,9 -7,6 -13,16 -17,32 -4,15 -6,47 -6,96l0 88zm335 -90l75 13c-10,28 -25,49 -46,63 -21,14 -47,22 -78,22 -50,0 -86,-16 -110,-49 -19,-26 -28,-59 -28,-99 0,-47 12,-85 37,-111 25,-27 56,-40 94,-40 42,0 76,14 101,42 25,28 36,71 35,129l-189 0c1,22 7,40 18,52 12,12 26,19 43,19 12,0 22,-3 30,-10 8,-6 14,-17 18,-31zm4 -77c-1,-22 -6,-39 -17,-50 -11,-11 -24,-17 -39,-17 -16,0 -30,6 -41,18 -11,12 -16,28 -16,49l113 0zm138 86l76 -12c3,15 10,26 20,33 10,8 24,11 41,11 20,0 34,-4 44,-11 7,-5 10,-12 10,-20 0,-6 -2,-10 -5,-14 -4,-4 -12,-7 -25,-10 -61,-13 -100,-26 -116,-37 -23,-16 -34,-37 -34,-64 0,-25 10,-46 29,-63 20,-17 50,-25 91,-25 39,0 68,6 87,19 19,13 32,32 39,57l-71 13c-3,-11 -9,-20 -17,-26 -9,-6 -21,-9 -37,-9 -20,0 -34,3 -43,8 -6,4 -9,9 -9,15 0,5 2,10 8,14 7,5 30,12 71,21 40,9 69,20 85,34 16,13 24,32 24,56 0,26 -11,49 -33,68 -22,19 -54,28 -97,28 -39,0 -70,-8 -93,-24 -23,-16 -38,-37 -45,-64zm334 0l76 -12c3,15 10,26 20,33 10,8 24,11 41,11 20,0 34,-4 44,-11 7,-5 10,-12 10,-20 0,-6 -2,-10 -5,-14 -4,-4 -12,-7 -25,-10 -61,-13 -100,-26 -116,-37 -23,-16 -34,-37 -34,-64 0,-25 10,-46 29,-63 20,-17 50,-25 91,-25 39,0 68,6 87,19 19,13 32,32 39,57l-71 13c-3,-11 -9,-20 -17,-26 -9,-6 -21,-9 -37,-9 -20,0 -34,3 -43,8 -6,4 -9,9 -9,15 0,5 2,10 8,14 7,5 30,12 71,21 40,9 69,20 85,34 16,13 24,32 24,56 0,26 -11,49 -33,68 -22,19 -54,28 -97,28 -39,0 -70,-8 -93,-24 -23,-16 -38,-37 -45,-64zm863 33l-46 58c-22,-11 -44,-26 -65,-45 -16,14 -33,25 -51,32 -18,7 -39,10 -64,10 -49,0 -86,-14 -111,-41 -19,-21 -29,-46 -29,-74 0,-25 8,-48 23,-68 15,-20 38,-38 68,-53 -13,-16 -24,-31 -30,-46 -7,-14 -10,-28 -10,-41 0,-24 10,-44 29,-61 19,-17 46,-25 82,-25 34,0 61,9 80,26 19,17 29,39 29,64 0,16 -5,31 -14,45 -9,14 -28,31 -57,49l54 73c6,-11 12,-26 17,-45l68 15c-7,24 -13,42 -18,53 -5,11 -10,21 -16,28 8,8 19,17 33,26 13,9 23,16 29,19zm-206 -215l20 -16c15,-12 22,-23 22,-35 0,-10 -4,-18 -11,-25 -7,-7 -17,-10 -29,-10 -12,0 -21,3 -28,9 -7,6 -10,13 -10,21 0,9 6,21 17,34l18 22zm-30 82c-17,9 -30,19 -39,32 -9,12 -13,25 -13,38 0,16 5,30 16,40 11,10 25,16 43,16 12,0 23,-2 34,-7 11,-5 23,-12 36,-23l-77 -95zm468 180l0 -391 80 0 0 324 198 0 0 67 -278 0zm344 -146c0,-25 6,-49 19,-73 12,-24 30,-42 53,-54 23,-12 48,-19 76,-19 43,0 79,14 106,42 28,28 41,64 41,107 0,43 -14,79 -42,108 -28,28 -63,43 -105,43 -26,0 -51,-6 -75,-18 -24,-12 -42,-29 -54,-52 -12,-23 -19,-51 -19,-84zm78 4c0,28 7,50 20,65 13,15 30,23 50,23 20,0 36,-8 49,-23 13,-15 20,-37 20,-66 0,-28 -7,-50 -20,-65 -13,-15 -30,-23 -49,-23 -20,0 -36,8 -50,23 -13,15 -20,37 -20,65zm297 161l86 10c1,10 5,17 10,21 7,5 19,8 34,8 20,0 34,-3 44,-9 7,-4 12,-10 15,-19 2,-6 3,-18 3,-35l0 -42c-23,31 -51,47 -86,47 -38,0 -69,-16 -91,-49 -18,-26 -26,-58 -26,-96 0,-48 12,-84 35,-110 23,-25 52,-38 86,-38 35,0 65,16 87,47l0 -40 70 0 0 256c0,34 -3,59 -8,76 -6,17 -13,30 -23,39 -10,9 -23,17 -40,22 -17,5 -38,8 -64,8 -48,0 -83,-8 -103,-25 -20,-17 -30,-38 -30,-63 0,-2 0,-6 0,-9zm68 -167c0,30 6,52 18,66 12,14 26,21 43,21 18,0 34,-7 47,-22 13,-14 19,-36 19,-64 0,-30 -6,-51 -18,-66 -12,-14 -28,-21 -46,-21 -18,0 -33,7 -45,21 -12,14 -18,35 -18,64zm304 -176l0 -70 75 0 0 70 -75 0zm0 324l0 -286 75 0 0 286 -75 0zm154 -80l76 -12c3,15 10,26 20,33 10,8 24,11 41,11 20,0 34,-4 44,-11 7,-5 10,-12 10,-20 0,-6 -2,-10 -5,-14 -4,-4 -12,-7 -25,-10 -61,-13 -100,-26 -116,-37 -23,-16 -34,-37 -34,-64 0,-25 10,-46 29,-63 20,-17 50,-25 91,-25 39,0 68,6 87,19 19,13 32,32 39,57l-71 13c-3,-11 -9,-20 -17,-26 -9,-6 -21,-9 -37,-9 -20,0 -34,3 -43,8 -6,4 -9,9 -9,15 0,5 2,10 8,14 7,5 30,12 71,21 40,9 69,20 85,34 16,13 24,32 24,56 0,26 -11,49 -33,68 -22,19 -54,28 -97,28 -39,0 -70,-8 -93,-24 -23,-16 -38,-37 -45,-64zm492 -205l0 60 -52 0 0 116c0,23 0,37 1,41 1,4 3,7 7,10 3,2 8,4 13,4 7,0 17,-2 30,-7l6 59c-18,8 -37,11 -60,11 -14,0 -26,-2 -37,-7 -11,-5 -19,-11 -24,-18 -5,-7 -9,-17 -11,-30 -2,-9 -2,-27 -2,-53l0 -125 -35 0 0 -60 35 0 0 -57 75 -45 0 101 52 0zm81 -39l0 -70 75 0 0 70 -75 0zm0 324l0 -286 75 0 0 286 -75 0zm430 -201l-74 13c-2,-15 -8,-26 -17,-33 -9,-7 -20,-11 -35,-11 -19,0 -34,7 -45,20 -11,13 -17,35 -17,65 0,34 6,58 17,72 11,14 27,21 46,21 14,0 26,-4 35,-12 9,-8 16,-22 19,-42l74 13c-8,34 -22,60 -44,77 -22,17 -51,26 -88,26 -42,0 -75,-13 -100,-40 -25,-26 -37,-63 -37,-110 0,-47 12,-84 37,-110 25,-26 59,-39 101,-39 35,0 62,8 83,22 20,15 35,38 44,68zm58 121l76 -12c3,15 10,26 20,33 10,8 24,11 41,11 20,0 34,-4 44,-11 7,-5 10,-12 10,-20 0,-6 -2,-10 -5,-14 -4,-4 -12,-7 -25,-10 -61,-13 -100,-26 -116,-37 -23,-16 -34,-37 -34,-64 0,-25 10,-46 29,-63 20,-17 50,-25 91,-25 39,0 68,6 87,19 19,13 32,32 39,57l-71 13c-3,-11 -9,-20 -17,-26 -9,-6 -21,-9 -37,-9 -20,0 -34,3 -43,8 -6,4 -9,9 -9,15 0,5 2,10 8,14 7,5 30,12 71,21 40,9 69,20 85,34 16,13 24,32 24,56 0,26 -11,49 -33,68 -22,19 -54,28 -97,28 -39,0 -70,-8 -93,-24 -23,-16 -38,-37 -45,-64z"/>
   <g>
    <g>
     <path class="fil1" d="M4177 5121c-6,243 17,443 -134,571 -496,417 -1086,-576 134,-571zm740 -302c-26,-538 -218,-866 -676,-993 -366,-99 -1092,-28 -1344,177l142 467c221,-78 340,-165 639,-172 273,-5 476,78 470,347 -392,9 -691,38 -1007,208 -589,321 -586,1271 142,1444 560,134 798,-184 938,-264l55 238 673 2 -32 -1453z"/>
    </g>
    <g>
     <polygon class="fil2" points="4632,4564 4936,4868 4632,5173 4327,4868 "/>
     <polygon class="fil1" points="5303,3913 5607,4217 5303,4521 4998,4217 "/>
     <polygon class="fil1" points="5303,4524 5607,4828 5303,5132 4998,4828 "/>
     <polygon class="fil1" points="5303,5135 5607,5439 5303,5744 4998,5439 "/>
     <polygon class="fil1" points="5899,4531 6203,4835 5899,5139 5594,4835 "/>
    </g>
   </g>
  </g>
 </g>
</svg>
