<?xml version="1.0" encoding="UTF-8"?>
<!DOCTYPE svg PUBLIC "-//W3C//DTD SVG 1.1//EN" "http://www.w3.org/Graphics/SVG/1.1/DTD/svg11.dtd">
<!-- Creator: CorelDRAW 2017 -->
<svg xmlns="http://www.w3.org/2000/svg" xml:space="preserve" width="8.26772in" height="11.6929in" version="1.1" style="shape-rendering:geometricPrecision; text-rendering:geometricPrecision; image-rendering:optimizeQuality; fill-rule:evenodd; clip-rule:evenodd"
viewBox="0 0 8268 11693"
 xmlns:xlink="http://www.w3.org/1999/xlink">
 <defs>
  <style type="text/css">
   <![CDATA[
    .str0 {stroke:#FF4E00;stroke-width:3}
    .fil2 {fill:#FEFEFE}
    .fil1 {fill:#FF4E00}
    .fil0 {fill:#FF4E00;fill-rule:nonzero}
   ]]>
  </style>
 </defs>
 <g id="Layer_x0020_1">
  <metadata id="CorelCorpID_0Corel-Layer"/>
  <g id="_2246552266432">
   <path class="fil0" d="M1305 8053c-10,30 -18,58 -23,85 -5,27 -7,53 -7,79 0,26 3,53 8,80 5,27 13,55 23,85l-58 0c-12,-30 -21,-59 -27,-86 -6,-27 -9,-53 -9,-78 0,-23 3,-48 9,-75 6,-27 15,-56 27,-89l58 0zm109 173l48 0 -24 -91 -24 91zm-99 90l84 -263 78 0 84 263 -76 0 -9 -35 -76 0 -9 35 -76 0zm367 -61l68 0c0,8 2,14 6,18 4,4 10,6 17,6 7,0 13,-1 17,-4 4,-3 6,-7 6,-12 0,-9 -9,-15 -26,-19 -1,0 -3,-1 -4,-1 -33,-8 -55,-16 -65,-25 -10,-9 -15,-22 -15,-39 0,-21 7,-37 22,-48 15,-11 37,-16 65,-16 26,0 47,5 61,15 15,10 23,26 25,46l-63 0c-1,-6 -3,-10 -7,-14 -4,-3 -9,-5 -15,-5 -6,0 -11,1 -14,3 -3,2 -5,6 -5,10 0,8 8,13 24,17 4,1 7,2 10,2 32,8 53,17 63,26 10,9 15,23 15,40 0,22 -8,39 -24,51 -16,11 -39,17 -70,17 -29,0 -51,-6 -66,-17 -15,-11 -23,-28 -25,-51zm403 -133l0 195 -64 0 0 -29c-8,11 -17,20 -28,25 -10,6 -22,8 -35,8 -11,0 -20,-2 -29,-6 -9,-4 -16,-10 -22,-18 -5,-7 -9,-15 -11,-25 -2,-10 -3,-27 -3,-50l0 -101 70 0 0 100c0,15 2,25 5,31 4,6 10,8 19,8 9,0 15,-3 20,-10 4,-7 7,-17 7,-30l0 -100 70 0zm106 99c0,14 3,25 8,33 5,8 12,12 21,12 9,0 16,-4 21,-12 5,-8 8,-19 8,-33 0,-15 -2,-27 -7,-34 -5,-7 -12,-11 -22,-11 -10,0 -17,4 -22,11 -5,7 -7,19 -7,34zm-68 95l0 -263 69 0 0 89c7,-9 15,-15 23,-19 9,-4 18,-7 28,-7 23,0 42,9 56,28 14,19 21,44 21,75 0,31 -7,56 -21,75 -14,19 -32,28 -55,28 -12,0 -23,-3 -32,-8 -10,-5 -18,-13 -26,-23l0 24 -62 0zm217 -61l68 0c0,8 2,14 6,18 4,4 10,6 17,6 7,0 13,-1 17,-4 4,-3 6,-7 6,-12 0,-9 -9,-15 -26,-19 -2,0 -3,-1 -4,-1 -33,-8 -55,-16 -65,-25 -10,-9 -15,-22 -15,-39 0,-21 7,-37 22,-48 15,-11 37,-16 65,-16 26,0 47,5 61,15 15,10 23,26 25,46l-63 0c-1,-6 -3,-10 -7,-14 -4,-3 -9,-5 -15,-5 -6,0 -11,1 -14,3 -3,2 -5,6 -5,10 0,8 8,13 24,17 4,1 7,2 10,2 32,8 53,17 63,26 10,9 15,23 15,40 0,22 -8,39 -24,51 -16,11 -39,17 -70,17 -29,0 -51,-6 -66,-17 -15,-11 -23,-28 -25,-51zm215 -153l0 -56 71 0 0 56 -71 0zm0 214l0 -195 71 0 0 195 -71 0zm299 0l-62 0 0 -24c-8,10 -16,18 -26,23 -10,5 -20,8 -32,8 -23,0 -41,-9 -55,-28 -14,-19 -21,-44 -21,-75 0,-31 7,-56 21,-75 14,-19 32,-29 54,-29 11,0 20,2 29,7 9,4 17,11 24,20l0 -90 69 0 0 263zm-97 -50c9,0 16,-4 21,-12 5,-8 8,-19 8,-33 0,-15 -2,-27 -7,-34 -5,-7 -12,-11 -22,-11 -10,0 -17,4 -22,11 -5,7 -7,19 -7,34 0,14 3,25 8,33 5,8 12,12 21,12zm137 -164l0 -56 71 0 0 56 -71 0zm0 214l0 -195 71 0 0 195 -71 0zm231 -87c-7,3 -16,6 -27,9 -18,5 -26,12 -26,21 0,5 2,10 5,13 3,3 8,5 15,5 12,0 20,-3 26,-9 5,-6 8,-15 8,-28 0,-3 0,-5 0,-6 0,-1 0,-3 0,-4zm7 87l-4 -19c-9,9 -19,15 -29,19 -10,4 -22,6 -35,6 -20,0 -35,-5 -46,-16 -11,-11 -16,-26 -16,-46 0,-19 5,-33 16,-43 11,-9 31,-16 61,-20 4,-1 9,-1 15,-2 22,-3 33,-9 33,-19 0,-6 -2,-10 -6,-12 -4,-3 -10,-4 -19,-4 -7,0 -13,2 -17,5 -4,3 -6,8 -7,15l-69 0c0,-22 8,-38 24,-50 16,-11 39,-17 70,-17 15,0 28,1 40,4 12,3 22,7 29,12 8,6 14,13 18,21 3,8 5,19 5,34l0 108c0,4 1,7 2,10 1,3 3,5 6,7l0 6 -71 0zm104 0l0 -195 65 0 0 35c5,-14 11,-24 20,-31 9,-7 20,-10 35,-10l6 0 0 77c-3,0 -5,0 -7,-1 -2,0 -5,0 -7,0 -14,0 -25,4 -31,11 -7,7 -10,18 -10,33l0 80 -71 0zm155 77l0 -58 20 0c7,0 12,-1 15,-4 3,-3 5,-7 5,-13 0,-3 0,-5 -1,-8 -1,-3 -2,-7 -3,-11l-59 -178 71 0 31 118 30 -118 66 0 -57 194c-7,22 -12,37 -15,45 -4,8 -7,14 -11,18 -5,6 -12,10 -19,12 -8,2 -20,4 -37,4 -5,0 -10,0 -16,0 -6,0 -13,-1 -19,-1zm365 -174c0,18 2,31 7,39 5,8 12,12 22,12 10,0 18,-4 22,-12 5,-8 7,-21 7,-39 0,-18 -2,-31 -7,-38 -5,-8 -12,-12 -22,-12 -10,0 -18,4 -22,12 -5,8 -7,21 -7,39zm-71 0c0,-32 9,-58 27,-76 18,-19 42,-28 74,-28 31,0 56,9 73,28 18,19 27,44 27,76 0,32 -9,58 -27,77 -18,19 -42,28 -73,28 -31,0 -56,-9 -73,-28 -18,-19 -27,-44 -27,-77zm236 97l0 -151 -22 0 0 -44 22 0 0 -12c0,-22 5,-38 15,-48 10,-10 25,-15 46,-15l40 0 0 49c-1,0 -2,0 -4,0 -2,0 -3,0 -4,0 -9,0 -15,2 -18,5 -3,3 -5,9 -5,17 0,1 0,1 0,3 0,1 0,2 0,3l30 0 0 44 -30 0 0 151 -70 0zm311 -90l48 0 -24 -91 -24 91zm-99 90l84 -263 78 0 84 263 -76 0 -9 -35 -76 0 -9 35 -76 0zm269 0l0 -263 77 0 0 193 105 0 0 70 -182 0zm213 0l0 -263 192 0 0 63 -115 0 0 35 97 0 0 60 -97 0 0 41 120 0 0 64 -197 0zm300 -131c0,25 4,43 11,55 8,12 20,18 36,18 16,0 28,-6 35,-17 7,-12 11,-30 11,-55 0,-25 -4,-44 -11,-55 -8,-12 -19,-17 -35,-17 -16,0 -28,6 -36,18 -8,12 -11,30 -11,55zm-78 0c0,-43 11,-77 34,-102 22,-25 53,-37 91,-37 38,0 69,12 91,37 22,25 33,59 33,102 0,43 -11,77 -33,102 -22,25 -53,37 -91,37 -39,0 -69,-12 -91,-37 -22,-25 -34,-59 -34,-102zm285 132l0 -263 73 0 67 122c2,3 4,8 7,15 2,6 5,14 7,23 -1,-5 -1,-10 -1,-15 0,-6 -1,-12 -1,-20l0 -124 73 0 0 263 -73 0 -67 -122c-2,-4 -4,-9 -7,-15 -2,-7 -5,-14 -7,-23 1,5 1,10 2,15 0,5 0,12 0,21l0 123 -73 0zm560 0l-4 -23c-9,10 -19,18 -32,23 -12,5 -27,7 -43,7 -34,0 -61,-12 -81,-37 -20,-25 -30,-59 -30,-102 0,-44 11,-78 33,-102 22,-24 53,-36 93,-36 31,0 57,9 76,26 19,17 31,41 34,72l-73 0c-3,-10 -8,-18 -14,-24 -7,-5 -15,-8 -24,-8 -15,0 -27,6 -35,19 -8,13 -12,32 -12,58 0,24 4,42 12,53 8,12 19,18 35,18 11,0 21,-3 29,-9 8,-6 13,-14 15,-23l-35 0 0 -56 106 0 0 144 -50 0zm170 -150l35 0c12,0 21,-2 25,-5 5,-4 7,-10 7,-19 0,-9 -2,-16 -7,-19 -5,-4 -14,-5 -27,-5l-33 0 0 49zm-76 150l0 -263 115 0c36,0 62,6 77,18 15,12 23,31 23,58 0,16 -3,29 -9,40 -6,11 -16,19 -29,25 13,3 23,9 29,18 6,9 9,22 10,40l1 37c0,0 0,1 0,1 0,11 3,16 7,16l0 10 -78 0c-1,-6 -3,-12 -3,-17 -1,-5 -1,-8 -1,-11l0 -26c0,-14 -2,-23 -7,-29 -5,-6 -13,-8 -25,-8l-33 0 0 91 -76 0zm322 -131c0,25 4,43 11,55 8,12 20,18 36,18 16,0 28,-6 35,-17 8,-12 11,-30 11,-55 0,-25 -4,-44 -11,-55 -8,-12 -19,-17 -35,-17 -16,0 -28,6 -36,18 -8,12 -11,30 -11,55zm-78 0c0,-43 11,-77 34,-102 22,-25 53,-37 91,-37 38,0 69,12 91,37 22,25 33,59 33,102 0,43 -11,77 -33,102 -22,25 -53,37 -91,37 -39,0 -69,-12 -91,-37 -22,-25 -34,-59 -34,-102zm284 -132l77 0 0 162c0,15 3,26 9,32 6,6 15,10 29,10 13,0 22,-3 28,-9 6,-6 8,-17 8,-32l0 -162 77 0 0 169c0,33 -10,58 -29,76 -19,17 -48,26 -84,26 -37,0 -65,-9 -85,-26 -20,-17 -29,-43 -29,-76l0 -169zm350 118l25 0c16,0 27,-2 32,-6 5,-4 8,-11 8,-21 0,-10 -3,-17 -8,-21 -5,-4 -16,-6 -33,-6l-25 0 0 54zm-77 145l0 -263 99 0c22,0 39,1 52,4 13,3 23,7 32,14 11,8 19,18 25,31 5,12 8,27 8,43 0,29 -8,52 -24,68 -16,16 -39,24 -69,24l-46 0 0 81 -77 0zm236 -263l58 0c12,31 21,60 27,87 6,27 9,53 9,77 0,24 -3,50 -9,77 -6,27 -15,56 -27,87l-58 0c10,-29 18,-57 23,-84 5,-27 8,-53 8,-79 0,-26 -2,-52 -8,-79 -5,-27 -13,-55 -23,-85z"/>
   <path class="fil0" d="M5433 8671l0 -190 81 0c20,0 35,2 44,5 9,3 17,9 22,18 6,9 8,19 8,30 0,14 -4,26 -13,35 -8,9 -21,15 -37,18 8,5 15,10 20,16 5,6 13,16 22,31l23 37 -46 0 -27 -41c-10,-15 -17,-24 -20,-28 -4,-4 -7,-6 -12,-8 -4,-1 -11,-2 -19,-2l-8 0 0 79 -38 0zm38 -110l28 0c18,0 30,-1 34,-2 5,-2 8,-4 11,-8 3,-4 4,-9 4,-14 0,-6 -2,-12 -5,-16 -3,-4 -8,-6 -14,-7 -3,0 -12,-1 -28,-1l-30 0 0 48zm274 40l37 11c-6,21 -15,36 -28,47 -13,10 -30,15 -50,15 -25,0 -46,-9 -62,-26 -16,-17 -24,-41 -24,-71 0,-32 8,-56 24,-74 16,-18 38,-26 64,-26 23,0 42,7 57,21 9,8 15,20 19,35l-38 9c-2,-10 -7,-18 -14,-23 -7,-6 -16,-9 -26,-9 -14,0 -26,5 -34,15 -9,10 -13,26 -13,49 0,24 4,41 13,51 9,10 20,15 34,15 10,0 19,-3 26,-10 7,-6 13,-17 16,-31zm77 -31l0 -36 36 0 0 36 -36 0zm0 101l0 -36 36 0 0 36 -36 0zm166 0l-36 0 0 -138c-13,12 -29,22 -47,28l0 -33c10,-3 20,-9 31,-18 11,-9 19,-19 23,-30l29 0 0 191zm178 -143l-35 4c-1,-7 -3,-13 -7,-16 -4,-3 -8,-5 -14,-5 -8,0 -14,3 -19,10 -5,7 -9,21 -10,43 9,-11 20,-16 34,-16 15,0 28,6 39,17 11,12 16,27 16,45 0,19 -6,35 -17,47 -11,12 -26,18 -44,18 -19,0 -35,-7 -47,-22 -12,-15 -19,-39 -19,-73 0,-35 6,-60 19,-75 13,-15 30,-23 50,-23 14,0 26,4 36,12 9,8 15,20 18,35zm-82 80c0,12 3,21 8,27 5,6 12,10 19,10 7,0 12,-3 17,-8 4,-5 7,-14 7,-26 0,-12 -2,-21 -7,-27 -5,-6 -11,-9 -18,-9 -7,0 -13,3 -18,8 -5,5 -7,14 -7,24zm138 -39c-9,-4 -16,-9 -20,-16 -4,-7 -6,-15 -6,-23 0,-14 5,-26 15,-35 10,-9 24,-14 42,-14 18,0 32,5 42,14 10,9 15,21 15,35 0,9 -2,17 -7,24 -5,7 -11,12 -19,16 11,4 19,10 24,19 5,8 8,18 8,28 0,18 -6,32 -17,43 -11,11 -26,16 -45,16 -17,0 -32,-5 -43,-14 -14,-11 -20,-25 -20,-44 0,-10 3,-20 8,-28 5,-9 13,-15 24,-20zm8 -37c0,7 2,13 6,17 4,4 10,6 16,6 7,0 12,-2 16,-6 4,-4 6,-10 6,-17 0,-7 -2,-12 -6,-16 -4,-4 -9,-6 -16,-6 -7,0 -12,2 -17,6 -4,4 -6,10 -6,17zm-3 81c0,10 3,18 8,24 5,6 11,8 19,8 8,0 14,-3 19,-8 5,-5 7,-13 7,-24 0,-9 -2,-16 -7,-22 -5,-5 -11,-8 -19,-8 -9,0 -15,3 -20,9 -4,6 -6,13 -6,20zm112 9l36 -4c1,8 4,15 9,20 5,5 11,7 18,7 8,0 14,-3 19,-9 5,-6 8,-16 8,-28 0,-12 -3,-21 -8,-26 -5,-6 -12,-9 -20,-9 -10,0 -20,5 -28,14l-29 -4 19 -99 96 0 0 34 -69 0 -6 32c8,-4 16,-6 25,-6 16,0 30,6 41,18 11,12 17,27 17,46 0,16 -5,30 -14,42 -12,17 -29,25 -51,25 -18,0 -32,-5 -43,-14 -11,-9 -18,-22 -20,-38zm270 15l0 34 -127 0c1,-13 6,-25 12,-36 7,-11 21,-27 41,-46 16,-15 26,-26 30,-31 5,-8 7,-15 7,-22 0,-8 -2,-14 -7,-19 -4,-4 -10,-7 -18,-7 -8,0 -14,2 -18,7 -4,5 -7,12 -8,23l-36 -4c2,-20 9,-34 20,-43 11,-9 26,-13 43,-13 19,0 33,5 44,15 11,10 16,23 16,38 0,9 -2,17 -5,25 -3,8 -8,16 -15,24 -4,6 -12,14 -24,24 -12,11 -19,18 -22,21 -3,3 -6,7 -7,10l72 0zm26 -10l35 -4c1,7 3,13 7,16 4,4 8,5 14,5 7,0 14,-3 19,-10 5,-7 9,-21 10,-43 -9,11 -21,16 -34,16 -15,0 -28,-6 -39,-17 -11,-12 -16,-27 -16,-45 0,-19 6,-35 17,-47 11,-12 26,-18 44,-18 19,0 35,7 47,22 12,15 18,39 18,74 0,35 -6,60 -19,75 -13,15 -30,23 -50,23 -15,0 -27,-4 -36,-12 -9,-8 -15,-20 -18,-36zm82 -80c0,-12 -3,-21 -8,-27 -5,-6 -12,-10 -19,-10 -7,0 -12,3 -17,8 -4,5 -7,14 -7,26 0,12 2,21 7,27 5,6 11,9 18,9 7,0 13,-3 18,-8 5,-6 7,-14 7,-24zm187 -20l-35 4c-1,-7 -3,-13 -7,-16 -4,-3 -8,-5 -14,-5 -8,0 -14,3 -19,10 -5,7 -9,21 -10,43 9,-11 20,-16 34,-16 15,0 28,6 39,17 11,12 16,27 16,45 0,19 -6,35 -17,47 -11,12 -26,18 -44,18 -19,0 -35,-7 -47,-22 -12,-15 -19,-39 -19,-73 0,-35 6,-60 19,-75 13,-15 30,-23 50,-23 14,0 26,4 36,12 9,8 15,20 18,35zm-82 80c0,12 3,21 8,27 5,6 12,10 19,10 7,0 12,-3 17,-8 4,-5 7,-14 7,-26 0,-12 -2,-21 -7,-27 -5,-6 -11,-9 -18,-9 -7,0 -13,3 -18,8 -5,5 -7,14 -7,24z"/>
   <path class="fil0" d="M945 6937l196 -464 70 0 71 0 186 464c13,31 24,51 35,61 10,10 26,16 48,18l13 1 0 74 -163 0 -163 0 0 -74 18 -1c30,-2 48,-8 54,-18 6,-10 2,-30 -10,-61l-23 -62 0 0 -203 0 0 0 -24 62c-13,31 -16,51 -10,61 6,10 25,16 57,18l20 1 0 74 -137 0 -137 0 0 -74 14 -1c20,-2 38,-9 52,-21 14,-12 27,-32 38,-58zm231 -327l-71 181 0 0 140 0 0 0 -69 -181 0 0zm1226 482l0 -58 9 0c35,0 57,-7 69,-20 11,-13 17,-40 17,-80l0 -18 0 -307 0 -17c0,-36 -6,-61 -17,-75 -11,-14 -30,-21 -58,-21l-10 0 0 -58 351 0 0 58 -15 0c-33,3 -57,10 -71,22 -14,12 -21,31 -21,57l0 25 0 9 0 305c0,38 6,64 19,80 12,16 34,24 64,24l11 0c5,0 18,-1 39,-4 21,-3 43,-13 65,-30 22,-18 36,-41 44,-69l4 -17 60 0 0 205 -26 -5c-15,-2 -32,-4 -52,-5 -19,-1 -42,-2 -69,-2l-411 0zm1320 0l0 -58 11 -2c28,0 47,-6 58,-18 11,-12 16,-33 16,-62l0 -34 0 -10 0 -286 0 -18 0 -32c0,-51 -25,-76 -75,-76l-9 0 0 -58 436 0c8,0 17,0 29,-1 11,-1 26,-2 44,-4l36 -3 19 -3 0 196 -61 0 -4 -15c-10,-38 -26,-63 -48,-76 -22,-13 -57,-20 -107,-20l-100 0 0 194 51 0 19 0c29,0 50,-5 62,-16 13,-11 21,-30 26,-57l0 -10 60 0 0 253 -60 0c0,-7 -1,-14 -2,-20 -2,-6 -6,-17 -12,-31 -7,-15 -15,-25 -25,-32 -10,-6 -29,-10 -56,-10l-18 0 -44 0 0 130 0 27 0 13c0,22 8,38 24,50 16,11 42,17 79,17 13,0 32,-2 59,-5 27,-3 50,-13 70,-29 20,-16 34,-40 43,-73l4 -16 60 0 0 203 -32 -5c-9,-1 -19,-2 -31,-3 -11,-1 -25,-1 -42,-1l-60 0 -420 0zm1391 -325c0,-108 29,-194 87,-256 58,-62 135,-93 230,-93 95,0 172,31 230,93 58,62 87,147 87,256 0,108 -29,194 -87,256 -58,62 -135,93 -230,93 -96,0 -172,-31 -230,-93 -58,-62 -87,-147 -87,-256zm172 0c0,40 2,73 6,98 4,25 12,52 23,80 11,28 28,50 49,67 21,16 44,25 67,25 26,0 50,-10 72,-30 22,-20 39,-45 52,-76 13,-31 20,-69 20,-115 0,-80 -6,-142 -17,-188 -11,-45 -29,-78 -52,-99 -23,-21 -48,-32 -74,-32 -24,0 -46,8 -68,25 -21,16 -38,39 -49,67 -11,28 -19,55 -23,80 -4,25 -6,58 -6,98zm1250 325l0 -58 10 0c22,0 38,-4 48,-13 10,-8 17,-20 20,-35 4,-15 6,-25 6,-33 1,-7 1,-21 1,-41l4 -277 0 -7 0 -44c0,-33 -5,-56 -16,-70 -10,-14 -28,-20 -54,-20l-14 0 0 -58 265 0c4,19 11,38 21,56l44 66 112 171c14,21 28,49 41,83 14,34 23,68 29,100l16 -5c-4,-20 -6,-40 -8,-59 -2,-19 -3,-40 -3,-63l0 -56 0 -115 0 -18 -4 -39c-5,-25 -12,-42 -23,-50 -10,-8 -30,-12 -59,-12l-9 0 0 -58 270 0 0 56 -12 2c-29,4 -48,13 -59,28 -10,14 -16,41 -16,79l0 22 0 320 0 73c0,13 1,26 2,40 2,14 3,26 4,35l-122 20c-12,-29 -22,-53 -32,-71 -10,-18 -30,-51 -60,-98l-167 -256c-11,-16 -21,-34 -29,-54 -8,-19 -16,-43 -24,-71l-6 -24 -12 0 5 25c2,13 3,27 5,43 2,16 2,26 2,32l0 15 0 29 0 228 0 24c0,36 6,62 18,76 12,15 33,22 63,22l10 0 0 58 -269 0z"/>
   <path class="fil0 str0" d="M521 7852l0 -505 374 0 0 85 -271 0 0 112 252 0 0 85 -252 0 0 137 281 0 0 85 -383 0zm458 0l132 -188 -126 -177 118 0 65 101 69 -101 113 0 -124 173 135 193 -118 0 -75 -113 -75 113 -113 0zm472 -366l90 0 0 54c12,-18 27,-33 47,-45 20,-11 42,-17 67,-17 42,0 78,17 108,50 30,33 44,80 44,139 0,61 -15,109 -45,143 -30,34 -66,51 -109,51 -20,0 -39,-4 -55,-12 -16,-8 -34,-22 -52,-41l0 183 -97 0 0 -505zm95 177c0,41 8,72 24,91 16,20 36,29 59,29 22,0 41,-9 56,-27 15,-18 22,-48 22,-89 0,-38 -8,-67 -23,-86 -15,-19 -34,-28 -57,-28 -24,0 -43,9 -59,27 -16,18 -23,45 -23,81zm466 189l-97 0 0 -366 90 0 0 52c15,-25 29,-41 42,-48 12,-8 26,-11 42,-11 22,0 43,6 64,18l-30 84c-16,-11 -31,-16 -45,-16 -14,0 -25,4 -35,11 -9,8 -17,21 -22,40 -5,19 -8,60 -8,122l0 113zm429 -116l97 16c-12,35 -32,62 -59,81 -27,18 -60,28 -100,28 -64,0 -111,-21 -141,-62 -24,-33 -36,-75 -36,-126 0,-61 16,-108 47,-142 32,-34 72,-52 120,-52 54,0 97,18 129,54 31,36 46,91 45,165l-242 0c1,29 8,51 23,67 15,16 33,24 55,24 15,0 28,-4 38,-12 10,-8 18,-21 23,-40zm6 -98c-1,-28 -8,-49 -22,-64 -14,-15 -30,-22 -50,-22 -21,0 -38,8 -52,23 -14,15 -20,36 -20,63l144 0zm176 111l97 -15c4,19 12,33 25,43 13,10 30,15 53,15 25,0 44,-5 57,-14 8,-6 13,-15 13,-26 0,-7 -2,-13 -7,-18 -5,-5 -16,-9 -32,-13 -78,-17 -128,-33 -148,-47 -29,-20 -43,-47 -43,-82 0,-32 13,-58 38,-80 25,-22 64,-32 116,-32 50,0 87,8 112,25 24,16 41,41 50,73l-91 17c-4,-14 -11,-25 -22,-33 -11,-8 -27,-11 -47,-11 -26,0 -44,4 -55,11 -7,5 -11,12 -11,20 0,7 3,13 10,18 9,6 39,16 91,27 52,12 88,26 108,43 20,17 30,41 30,72 0,33 -14,62 -42,86 -28,24 -69,36 -124,36 -50,0 -89,-10 -118,-30 -29,-20 -48,-47 -57,-82zm428 0l97 -15c4,19 12,33 25,43 13,10 30,15 53,15 25,0 44,-5 57,-14 8,-6 13,-15 13,-26 0,-7 -2,-13 -7,-18 -5,-5 -16,-9 -32,-13 -78,-17 -128,-33 -148,-47 -29,-20 -43,-47 -43,-82 0,-32 13,-58 38,-80 25,-22 64,-32 116,-32 50,0 87,8 112,25 24,16 41,41 50,73l-91 17c-4,-14 -11,-25 -22,-33 -11,-8 -27,-11 -47,-11 -26,0 -44,4 -55,11 -7,5 -11,12 -11,20 0,7 3,13 10,18 9,6 39,16 91,27 52,12 88,26 108,43 20,17 30,41 30,72 0,33 -14,62 -42,86 -28,24 -69,36 -124,36 -50,0 -89,-10 -118,-30 -29,-20 -48,-47 -57,-82zm1105 42l-59 75c-29,-14 -56,-33 -83,-58 -20,18 -42,32 -65,41 -23,9 -50,13 -82,13 -63,0 -110,-18 -142,-53 -25,-27 -37,-59 -37,-94 0,-32 10,-62 29,-87 19,-26 48,-48 87,-67 -17,-20 -30,-40 -39,-58 -9,-19 -13,-36 -13,-53 0,-31 12,-57 37,-78 24,-21 59,-32 104,-32 43,0 78,11 102,33 25,22 37,49 37,82 0,20 -6,40 -18,58 -12,18 -36,39 -73,62l69 93c8,-15 15,-34 21,-57l88 20c-9,31 -16,54 -23,68 -6,14 -13,26 -21,36 11,10 25,21 42,33 17,12 30,20 38,24zm-263 -275l26 -20c19,-15 29,-30 29,-44 0,-12 -5,-23 -14,-32 -9,-9 -22,-13 -37,-13 -15,0 -27,4 -36,11 -9,8 -13,17 -13,27 0,12 7,26 22,43l24 28zm-38 105c-22,11 -39,25 -50,41 -11,16 -16,32 -16,49 0,21 7,38 20,51 14,13 32,20 55,20 15,0 30,-3 43,-9 14,-6 29,-16 46,-30l-98 -122zm598 231l0 -500 102 0 0 415 253 0 0 85 -355 0zm440 -187c0,-32 8,-63 24,-93 16,-30 38,-53 67,-69 29,-16 61,-24 97,-24 55,0 101,18 136,54 35,36 53,81 53,136 0,55 -18,101 -53,138 -36,36 -81,55 -135,55 -33,0 -65,-8 -96,-23 -30,-15 -53,-37 -69,-67 -16,-29 -24,-65 -24,-107zm99 5c0,36 9,64 26,83 17,19 38,29 64,29 25,0 46,-10 63,-29 17,-19 26,-47 26,-84 0,-36 -9,-63 -26,-83 -17,-19 -38,-29 -63,-29 -25,0 -46,10 -64,29 -17,19 -26,47 -26,83zm380 205l111 13c2,13 6,22 13,27 9,7 24,10 43,10 25,0 44,-4 57,-11 8,-5 15,-13 19,-24 3,-8 4,-23 4,-44l0 -53c-29,40 -66,60 -110,60 -49,0 -88,-21 -117,-62 -23,-33 -34,-74 -34,-122 0,-61 15,-108 44,-140 30,-32 66,-48 110,-48 45,0 83,20 112,60l0 -52 90 0 0 328c0,43 -4,75 -11,97 -7,21 -17,38 -30,50 -13,12 -30,22 -51,29 -21,7 -49,10 -81,10 -62,0 -106,-11 -132,-32 -26,-21 -39,-48 -39,-81 0,-3 0,-7 0,-12zm87 -214c0,39 8,67 22,85 15,18 34,27 56,27 23,0 43,-9 60,-28 16,-18 24,-46 24,-82 0,-38 -8,-66 -23,-84 -16,-18 -35,-27 -59,-27 -23,0 -42,9 -57,27 -15,18 -22,45 -22,82zm389 -225l0 -90 97 0 0 90 -97 0zm0 415l0 -366 97 0 0 366 -97 0zm197 -103l97 -15c4,19 12,33 25,43 13,10 30,15 53,15 25,0 44,-5 57,-14 8,-6 13,-15 13,-26 0,-7 -2,-13 -7,-18 -5,-5 -16,-9 -32,-13 -78,-17 -128,-33 -148,-47 -29,-20 -43,-47 -43,-82 0,-32 13,-58 38,-80 25,-22 64,-32 116,-32 50,0 87,8 112,25 24,16 41,41 50,73l-91 17c-4,-14 -11,-25 -22,-33 -11,-8 -27,-11 -47,-11 -26,0 -44,4 -55,11 -7,5 -11,12 -11,20 0,7 3,13 10,18 9,6 39,16 91,27 52,12 88,26 108,43 20,17 30,41 30,72 0,33 -14,62 -42,86 -28,24 -69,36 -124,36 -50,0 -89,-10 -118,-30 -29,-20 -48,-47 -57,-82zm629 -263l0 77 -66 0 0 148c0,30 1,48 2,53 1,5 4,9 9,12 4,3 10,5 16,5 9,0 22,-3 39,-9l8 75c-22,10 -48,14 -76,14 -17,0 -33,-3 -47,-9 -14,-6 -24,-14 -31,-23 -7,-9 -11,-22 -14,-38 -2,-11 -3,-34 -3,-68l0 -160 -44 0 0 -77 44 0 0 -73 97 -57 0 130 66 0zm104 -49l0 -90 97 0 0 90 -97 0zm0 415l0 -366 97 0 0 366 -97 0zm550 -257l-95 17c-3,-19 -10,-33 -22,-43 -11,-10 -26,-14 -44,-14 -24,0 -43,8 -58,25 -14,17 -21,45 -21,84 0,43 7,74 22,92 15,18 34,27 58,27 18,0 33,-5 45,-16 12,-10 20,-28 25,-54l95 16c-10,44 -29,77 -57,99 -28,22 -65,33 -113,33 -53,0 -96,-17 -128,-51 -32,-34 -48,-81 -48,-140 0,-60 16,-107 48,-141 32,-34 75,-51 129,-51 44,0 80,10 106,29 26,19 45,48 57,88zm75 154l97 -15c4,19 12,33 25,43 13,10 30,15 53,15 25,0 44,-5 57,-14 8,-6 13,-15 13,-26 0,-7 -2,-13 -7,-18 -5,-5 -16,-9 -32,-13 -78,-17 -128,-33 -148,-47 -29,-20 -43,-47 -43,-82 0,-32 13,-58 38,-80 25,-22 64,-32 116,-32 50,0 87,8 112,25 24,16 41,41 50,73l-91 17c-4,-14 -11,-25 -22,-33 -11,-8 -27,-11 -47,-11 -26,0 -44,4 -55,11 -7,5 -11,12 -11,20 0,7 3,13 10,18 9,6 39,16 91,27 52,12 88,26 108,43 20,17 30,41 30,72 0,33 -14,62 -42,86 -28,24 -69,36 -124,36 -50,0 -89,-10 -118,-30 -29,-20 -48,-47 -57,-82z"/>
   <g>
    <g>
     <path class="fil1" d="M4190 4732c-7,311 22,567 -171,730 -635,534 -1389,-736 171,-730zm947 -386c-33,-688 -279,-1108 -866,-1271 -468,-127 -1397,-36 -1720,226l182 598c282,-100 435,-211 817,-220 349,-6 609,100 602,444 -502,12 -884,48 -1289,266 -754,411 -750,1627 182,1847 717,172 1022,-235 1200,-338l71 305 862 3 -41 -1859z"/>
    </g>
    <g>
     <polygon class="fil2" points="4771,4019 5160,4408 4771,4798 4382,4408 "/>
     <polygon class="fil1" points="5629,3185 6019,3575 5629,3964 5240,3575 "/>
     <polygon class="fil1" points="5629,3967 6019,4357 5629,4746 5240,4357 "/>
     <polygon class="fil1" points="5629,4749 6019,5139 5629,5528 5240,5139 "/>
     <polygon class="fil1" points="6392,3976 6782,4366 6392,4755 6003,4366 "/>
    </g>
   </g>
  </g>
 </g>
</svg>
